<?xml version="1.0" encoding="UTF-8" standalone="no"?>
<!DOCTYPE svg PUBLIC "-//W3C//DTD SVG 1.1//EN"
 "http://www.w3.org/Graphics/SVG/1.1/DTD/svg11.dtd">
<!-- Generated by graphviz version 2.40.1 (20161225.0304)
 -->
<!-- Title: G Pages: 1 -->
<svg width="555pt" height="276pt"
 viewBox="0.00 0.00 555.04 276.00" xmlns="http://www.w3.org/2000/svg" xmlns:xlink="http://www.w3.org/1999/xlink">
<g id="graph0" class="graph" transform="scale(1 1) rotate(0) translate(4 272)">
<title>G</title>
<polygon fill="#ffffff" stroke="transparent" points="-4,4 -4,-272 551.041,-272 551.041,4 -4,4"/>
<!-- A0 -->
<g id="node1" class="node">
<title>A0</title>
<polygon fill="none" stroke="#000000" points="62.651,-210 -.218,-210 -.218,-174 62.651,-174 62.651,-210"/>
<text text-anchor="middle" x="31.2165" y="-189" font-family="Helvetica,sans-Serif" font-size="10.00" fill="#000000">Crawler</text>
</g>
<!-- A1 -->
<g id="node2" class="node">
<title>A1</title>
<polygon fill="none" stroke="#000000" points="208.9406,-268 127.3014,-268 127.3014,-232 208.9406,-232 208.9406,-268"/>
<text text-anchor="middle" x="168.121" y="-247" font-family="Helvetica,sans-Serif" font-size="10.00" fill="#000000">CrawlerImpl</text>
</g>
<!-- A0&#45;&gt;A1 -->
<g id="edge1" class="edge">
<title>A0&#45;&gt;A1</title>
<path fill="none" stroke="#000000" d="M71.9875,-209.2728C89.4402,-216.6666 109.78,-225.2837 127.2443,-232.6825"/>
<polygon fill="none" stroke="#000000" points="73.1983,-205.9846 62.6252,-205.3064 70.4676,-212.4301 73.1983,-205.9846"/>
</g>
<!-- A3 -->
<g id="node4" class="node">
<title>A3</title>
<polygon fill="none" stroke="#000000" points="204.623,-152 131.619,-152 131.619,-116 204.623,-116 204.623,-152"/>
<text text-anchor="middle" x="168.121" y="-131" font-family="Helvetica,sans-Serif" font-size="10.00" fill="#000000">RabbitMQ</text>
</g>
<!-- A0&#45;&gt;A3 -->
<g id="edge3" class="edge">
<title>A0&#45;&gt;A3</title>
<path fill="none" stroke="#000000" d="M62.6252,-178.6936C80.264,-171.2209 102.5989,-161.7586 122.1719,-153.4665"/>
<polygon fill="#000000" stroke="#000000" points="131.5259,-149.5036 124.0735,-157.5481 126.922,-151.4541 122.3181,-153.4046 122.3181,-153.4046 122.3181,-153.4046 126.922,-151.4541 120.5627,-149.2611 131.5259,-149.5036 131.5259,-149.5036"/>
</g>
<!-- A2 -->
<g id="node3" class="node">
<title>A2</title>
<polygon fill="#ffffe0" stroke="#000000" points="217.9976,-214 112.2444,-214 112.2444,-170 223.9976,-170 223.9976,-208 217.9976,-214"/>
<polyline fill="none" stroke="#000000" points="217.9976,-214 217.9976,-208 "/>
<polyline fill="none" stroke="#000000" points="223.9976,-208 217.9976,-208 "/>
<text text-anchor="middle" x="168.121" y="-201" font-family="Helvetica,sans-Serif" font-size="10.00" fill="#000000">like ImmoScout,</text>
<text text-anchor="middle" x="168.121" y="-189" font-family="Helvetica,sans-Serif" font-size="10.00" fill="#000000">Sueddeutsche and</text>
<text text-anchor="middle" x="168.121" y="-177" font-family="Helvetica,sans-Serif" font-size="10.00" fill="#000000">WGGesucht</text>
</g>
<!-- A1&#45;&gt;A2 -->
<g id="edge2" class="edge">
<title>A1&#45;&gt;A2</title>
<path fill="none" stroke="#000000" stroke-dasharray="5,2" d="M168.121,-231.8219C168.121,-225.949 168.121,-220.076 168.121,-214.2031"/>
</g>
<!-- A4 -->
<g id="node5" class="node">
<title>A4</title>
<polygon fill="none" stroke="#000000" points="364.316,-144 291.308,-144 291.308,-108 364.316,-108 364.316,-144"/>
<text text-anchor="middle" x="327.812" y="-123" font-family="Helvetica,sans-Serif" font-size="10.00" fill="#000000">Processor</text>
</g>
<!-- A3&#45;&gt;A4 -->
<g id="edge4" class="edge">
<title>A3&#45;&gt;A4</title>
<path fill="none" stroke="#000000" d="M204.7573,-132.1646C227.3981,-131.0304 256.6719,-129.5639 280.9867,-128.3458"/>
<polygon fill="#000000" stroke="#000000" points="291.07,-127.8407 281.3077,-132.8355 286.0762,-128.0909 281.0825,-128.3411 281.0825,-128.3411 281.0825,-128.3411 286.0762,-128.0909 280.8573,-123.8467 291.07,-127.8407 291.07,-127.8407"/>
</g>
<!-- A5 -->
<g id="node6" class="node">
<title>A5</title>
<polygon fill="#ffffe0" stroke="#000000" points="217.9846,-44 112.2574,-44 112.2574,0 223.9846,0 223.9846,-38 217.9846,-44"/>
<polyline fill="none" stroke="#000000" points="217.9846,-44 217.9846,-38 "/>
<polyline fill="none" stroke="#000000" points="223.9846,-38 217.9846,-38 "/>
<text text-anchor="middle" x="168.121" y="-31" font-family="Helvetica,sans-Serif" font-size="10.00" fill="#000000">delivers crawled</text>
<text text-anchor="middle" x="168.121" y="-19" font-family="Helvetica,sans-Serif" font-size="10.00" fill="#000000">flats and then</text>
<text text-anchor="middle" x="168.121" y="-7" font-family="Helvetica,sans-Serif" font-size="10.00" fill="#000000">forgets about them</text>
</g>
<!-- A3&#45;&gt;A5 -->
<g id="edge5" class="edge">
<title>A3&#45;&gt;A5</title>
<path fill="none" stroke="#000000" stroke-dasharray="5,2" d="M131.2292,-127.0011C114.8952,-121.8689 97.2018,-113.0555 87.433,-98 78.724,-84.5779 78.9981,-75.596 87.433,-62 93.3677,-52.4341 102.3466,-45.0849 112.188,-39.4623"/>
</g>
<!-- A6 -->
<g id="node7" class="node">
<title>A6</title>
<polygon fill="none" stroke="#000000" points="547.1542,-109 431.7018,-109 431.7018,-73 547.1542,-73 547.1542,-109"/>
<text text-anchor="middle" x="489.428" y="-88" font-family="Helvetica,sans-Serif" font-size="10.00" fill="#000000">TelegramProcessor</text>
</g>
<!-- A4&#45;&gt;A6 -->
<g id="edge6" class="edge">
<title>A4&#45;&gt;A6</title>
<path fill="none" stroke="#000000" d="M374.3786,-115.9154C392.2499,-112.0452 412.8627,-107.5812 431.6603,-103.5103"/>
<polygon fill="none" stroke="#000000" points="373.5178,-112.5206 364.4852,-118.058 374.9994,-119.362 373.5178,-112.5206"/>
</g>
<!-- A7 -->
<g id="node8" class="node">
<title>A7</title>
<polygon fill="none" stroke="#000000" points="522.8211,-248 456.0349,-248 456.0349,-212 522.8211,-212 522.8211,-248"/>
<text text-anchor="middle" x="489.428" y="-227" font-family="Helvetica,sans-Serif" font-size="10.00" fill="#000000">Firebase</text>
</g>
<!-- A4&#45;&gt;A7 -->
<g id="edge8" class="edge">
<title>A4&#45;&gt;A7</title>
<path fill="none" stroke="#000000" d="M373.3834,-147.4201C376.2993,-149.2051 379.1364,-151.0694 381.815,-153 407.3101,-171.3754 406.0888,-184.9496 431.815,-203 436.3927,-206.2119 441.413,-209.2093 446.5217,-211.9516"/>
<polygon fill="#000000" stroke="#000000" points="364.4784,-142.3155 375.392,-143.3846 368.8162,-144.8021 373.1541,-147.2887 373.1541,-147.2887 373.1541,-147.2887 368.8162,-144.8021 370.9161,-151.1928 364.4784,-142.3155 364.4784,-142.3155"/>
<polygon fill="#000000" stroke="#000000" points="455.7365,-216.603 444.7815,-216.1139 451.2729,-214.3499 446.8094,-212.0967 446.8094,-212.0967 446.8094,-212.0967 451.2729,-214.3499 448.8372,-208.0795 455.7365,-216.603 455.7365,-216.603"/>
</g>
<!-- A8 -->
<g id="node9" class="node">
<title>A8</title>
<polygon fill="#ffffe0" stroke="#000000" points="534.336,-194 438.52,-194 438.52,-150 540.336,-150 540.336,-188 534.336,-194"/>
<polyline fill="none" stroke="#000000" points="534.336,-194 534.336,-188 "/>
<polyline fill="none" stroke="#000000" points="540.336,-188 534.336,-188 "/>
<text text-anchor="middle" x="489.428" y="-181" font-family="Helvetica,sans-Serif" font-size="10.00" fill="#000000">stores users and</text>
<text text-anchor="middle" x="489.428" y="-169" font-family="Helvetica,sans-Serif" font-size="10.00" fill="#000000">their search</text>
<text text-anchor="middle" x="489.428" y="-157" font-family="Helvetica,sans-Serif" font-size="10.00" fill="#000000">configurations</text>
</g>
<!-- A7&#45;&gt;A8 -->
<g id="edge7" class="edge">
<title>A7&#45;&gt;A8</title>
<path fill="none" stroke="#000000" stroke-dasharray="5,2" d="M489.428,-211.8219C489.428,-205.949 489.428,-200.076 489.428,-194.2031"/>
</g>
<!-- A9 -->
<g id="node10" class="node">
<title>A9</title>
<polygon fill="none" stroke="#000000" points="378.0483,-260 277.5757,-260 277.5757,-224 378.0483,-224 378.0483,-260"/>
<text text-anchor="middle" x="327.812" y="-239" font-family="Helvetica,sans-Serif" font-size="10.00" fill="#000000">Web Application</text>
</g>
<!-- A9&#45;&gt;A7 -->
<g id="edge9" class="edge">
<title>A9&#45;&gt;A7</title>
<path fill="none" stroke="#000000" d="M388.3225,-237.5071C407.3347,-236.0954 427.9496,-234.5648 445.5751,-233.2561"/>
<polygon fill="#000000" stroke="#000000" points="378.0624,-238.2689 387.7017,-233.0407 383.0487,-237.8986 388.0349,-237.5284 388.0349,-237.5284 388.0349,-237.5284 383.0487,-237.8986 388.3682,-242.016 378.0624,-238.2689 378.0624,-238.2689"/>
<polygon fill="#000000" stroke="#000000" points="455.5726,-232.5138 445.9333,-237.742 450.5863,-232.884 445.6001,-233.2543 445.6001,-233.2543 445.6001,-233.2543 450.5863,-232.884 445.2668,-228.7667 455.5726,-232.5138 455.5726,-232.5138"/>
</g>
<!-- A10 -->
<g id="node11" class="node">
<title>A10</title>
<polygon fill="#ffffe0" stroke="#000000" points="375.818,-206 273.806,-206 273.806,-162 381.818,-162 381.818,-200 375.818,-206"/>
<polyline fill="none" stroke="#000000" points="375.818,-206 375.818,-200 "/>
<polyline fill="none" stroke="#000000" points="381.818,-200 375.818,-200 "/>
<text text-anchor="middle" x="327.812" y="-193" font-family="Helvetica,sans-Serif" font-size="10.00" fill="#000000">can be used to</text>
<text text-anchor="middle" x="327.812" y="-181" font-family="Helvetica,sans-Serif" font-size="10.00" fill="#000000">simply edit search</text>
<text text-anchor="middle" x="327.812" y="-169" font-family="Helvetica,sans-Serif" font-size="10.00" fill="#000000">configurations</text>
</g>
<!-- A9&#45;&gt;A10 -->
<g id="edge10" class="edge">
<title>A9&#45;&gt;A10</title>
<path fill="none" stroke="#000000" stroke-dasharray="5,2" d="M327.812,-223.8219C327.812,-217.949 327.812,-212.076 327.812,-206.2031"/>
</g>
<!-- A11 -->
<g id="node12" class="node">
<title>A11</title>
<polygon fill="none" stroke="#000000" points="195.121,-98 141.121,-98 141.121,-62 195.121,-62 195.121,-98"/>
<text text-anchor="middle" x="168.121" y="-77" font-family="Helvetica,sans-Serif" font-size="10.00" fill="#000000">User</text>
</g>
<!-- A11&#45;&gt;A6 -->
<g id="edge12" class="edge">
<title>A11&#45;&gt;A6</title>
<path fill="none" stroke="#000000" d="M205.3439,-81.2743C258.1051,-83.0806 355.5369,-86.4162 421.4082,-88.6713"/>
<polygon fill="#000000" stroke="#000000" points="195.2385,-80.9284 205.3867,-76.7733 200.2356,-81.0995 205.2327,-81.2706 205.2327,-81.2706 205.2327,-81.2706 200.2356,-81.0995 205.0787,-85.768 195.2385,-80.9284 195.2385,-80.9284"/>
<polygon fill="#000000" stroke="#000000" points="431.6974,-89.0236 421.5493,-93.1787 426.7004,-88.8525 421.7033,-88.6813 421.7033,-88.6813 421.7033,-88.6813 426.7004,-88.8525 421.8573,-84.184 431.6974,-89.0236 431.6974,-89.0236"/>
</g>
<!-- A11&#45;&gt;A9 -->
<g id="edge11" class="edge">
<title>A11&#45;&gt;A9</title>
<path fill="none" stroke="#000000" d="M204.6159,-93.2122C211.5758,-96.9072 218.3738,-101.4668 223.809,-107 260.8754,-144.7347 236.973,-177.0403 273.809,-215 274.7123,-215.9309 275.6545,-216.8349 276.6297,-217.7124"/>
<polygon fill="#000000" stroke="#000000" points="195.1374,-88.6991 206.1008,-88.9352 199.6518,-90.8486 204.1662,-92.9981 204.1662,-92.9981 204.1662,-92.9981 199.6518,-90.8486 202.2317,-97.0611 195.1374,-88.6991 195.1374,-88.6991"/>
<polygon fill="#000000" stroke="#000000" points="284.6546,-223.9283 273.9931,-221.3622 280.7017,-220.8664 276.7488,-217.8046 276.7488,-217.8046 276.7488,-217.8046 280.7017,-220.8664 279.5044,-214.247 284.6546,-223.9283 284.6546,-223.9283"/>
</g>
</g>
</svg>
